<?xml version="1.0" encoding="utf-8"?>
<!-- Generator: Adobe Illustrator 19.0.0, SVG Export Plug-In . SVG Version: 6.00 Build 0)  -->
<svg version="1.1" id="Layer_1" xmlns="http://www.w3.org/2000/svg" xmlns:xlink="http://www.w3.org/1999/xlink" x="0px" y="0px"
	 viewBox="-91 203 412.1 436.9" style="enable-background:new -91 203 412.1 436.9;" xml:space="preserve">
<style type="text/css">
	.st0{fill:none;stroke:#FFFFFF;stroke-width:6;stroke-miterlimit:10;}
	.st1{fill:none;stroke:#FFFFFF;stroke-width:6;stroke-linecap:round;stroke-linejoin:round;stroke-miterlimit:10;}
	.st2{fill:none;stroke:#FFFFFF;stroke-width:6;stroke-linecap:round;stroke-miterlimit:10;}
	.st3{fill:none;stroke:#D9B343;stroke-width:6;stroke-linejoin:round;stroke-miterlimit:10;}
</style>
<g id="_x32_qd15W.tif">
</g>
<g>
	<path class="st0" d="M290.9,522.5H-60.2c-8.2,0-14.9-6.7-14.9-14.9V282.5c0-8.2,6.7-14.9,14.9-14.9h351.1c8.2,0,14.9,6.7,14.9,14.9
		v225.1C305.8,515.9,299.1,522.5,290.9,522.5z"/>
	<path class="st1" d="M209.2,592.4L209.2,592.4l-191.1,0l0.2-0.4c11.1-2.6,24.1-14.2,33.2-31c7.5-13.8,10.6-28,9.3-38.6h101.5
		c-1.3,10.5,1.8,24.6,9.3,38.4C182,579.9,197.3,592.3,209.2,592.4z"/>
	<path class="st0" d="M274,479.4H-44c-3.3,0-6-2.7-6-6V294.3c0-3.3,2.7-6,6-6h318c3.3,0,6,2.7,6,6v179.2
		C280,476.8,277.3,479.4,274,479.4z"/>
	<path class="st2" d="M71.4,572.4c3.6-4.9,5.6-10.3,7.3-15.7c3.2-10,3.2-11,3.8-16.7"/>
	<g>
		<polygon class="st3" points="97.9,425.2 80.4,439 85,417.2 141.8,325.7 154.6,333.6 		"/>
		
			<rect x="146.8" y="321.8" transform="matrix(0.8499 0.5269 -0.5269 0.8499 194.3458 -30.3074)" class="st3" width="7.1" height="8.5"/>
		<line class="st3" x1="85" y1="417.2" x2="97.9" y2="425.2"/>
	</g>
	<polyline class="st1" points="51.9,412 8.6,379.6 51.9,344.8 	"/>
	<polyline class="st1" points="178.8,412 222.1,379.6 178.8,344.8 	"/>
</g>
</svg>
