<?xml version="1.0" encoding="utf-8"?>
<!-- Generator: Adobe Illustrator 19.0.0, SVG Export Plug-In . SVG Version: 6.00 Build 0)  -->
<svg version="1.1" id="Layer_1" xmlns="http://www.w3.org/2000/svg" xmlns:xlink="http://www.w3.org/1999/xlink" x="0px" y="0px"
	 viewBox="-91 203 412.1 436.9" style="enable-background:new -91 203 412.1 436.9;" xml:space="preserve">
<style type="text/css">
	.st0{fill:none;stroke:#D9B343;stroke-width:6;stroke-miterlimit:10;}
	.st1{fill:#D9B343;}
	.st2{fill:none;stroke:#FFFFFF;stroke-width:6;stroke-miterlimit:10;}
</style>
<circle id="XMLID_163_" class="st0" cx="114.9" cy="421.8" r="152.7"/>
<circle id="XMLID_162_" class="st0" cx="-36.5" cy="267.7" r="7"/>
<circle id="XMLID_161_" class="st0" cx="266.6" cy="268.1" r="7"/>
<line id="XMLID_160_" class="st0" x1="-29.5" y1="267.7" x2="259.6" y2="268.1"/>
<rect id="XMLID_159_" x="103.8" y="256.9" class="st1" width="22.5" height="22.5"/>
<path id="XMLID_158_" class="st2" d="M166.9,585.9v-55.2c0,0-0.9-24.8,11.8-46c10.6-17.7,32.5-29.3,32.5-29.3l-96.3-175.3l-97,175.4
	c0,0,22.6,12.1,34,29.5c12,18.4,11,45.7,11,45.7s-0.8,41.4-0.8,55.2"/>
<line id="XMLID_157_" class="st2" x1="34.8" y1="534.7" x2="193.6" y2="534.7"/>
<line id="XMLID_156_" class="st2" x1="114.9" y1="280.1" x2="114.5" y2="442.5"/>
<circle id="XMLID_155_" class="st2" cx="114.5" cy="454.2" r="11.8"/>
<line id="XMLID_154_" class="st2" x1="94.1" y1="545.3" x2="94.1" y2="585.9"/>
<g id="_x32_qd15W.tif">
</g>
</svg>
