<?xml version="1.0" encoding="utf-8"?>
<!-- Generator: Adobe Illustrator 19.0.0, SVG Export Plug-In . SVG Version: 6.00 Build 0)  -->
<svg version="1.1" id="Layer_1" xmlns="http://www.w3.org/2000/svg" xmlns:xlink="http://www.w3.org/1999/xlink" x="0px" y="0px"
	 viewBox="-191.6 203 512.7 436.9" style="enable-background:new -191.6 203 512.7 436.9;" xml:space="preserve">
<style type="text/css">
	.st0{fill:none;stroke:#FFFFFF;stroke-width:6;stroke-linecap:round;stroke-linejoin:round;stroke-miterlimit:10;}
	.st1{fill:none;stroke:#D9B343;stroke-width:6;stroke-miterlimit:10;}
	.st2{fill:none;stroke:#FFFFFF;stroke-width:6;stroke-linecap:round;stroke-miterlimit:10;}
	.st3{fill:none;stroke:#FFFFFF;stroke-width:6;stroke-miterlimit:10;}
	.st4{fill:#FFFFFF;}
	.st5{fill:none;stroke:#FFFFFF;stroke-width:5;stroke-miterlimit:10;}
	.st6{fill:none;stroke:#D9B343;stroke-width:5;stroke-miterlimit:10;}
	.st7{fill:none;stroke:#FFFFFF;stroke-width:3;stroke-miterlimit:10;}
	.st8{fill:none;stroke:#FFFFFF;stroke-width:4;stroke-miterlimit:10;}
	.st9{fill:none;stroke:#D9B343;stroke-width:3;stroke-miterlimit:10;}
</style>
<g id="_x32_qd15W.tif">
</g>
<path class="st0" d="M141.8,580.3H-34.6l0.2-0.4c11.1-2.6,24.1-14.2,33.2-31c7.5-13.8,10.6-28,9.3-38.6h101.5
	c-1.3,10.5,1.8,24.6,9.3,38.4c5.6,10.2,12.5,18.5,19.6,24v3C138.5,577.9,139.9,579.7,141.8,580.3z"/>
<rect x="-43.9" y="302.8" class="st1" width="213" height="77.4"/>
<path class="st2" d="M18.7,560.3c3.6-4.9,5.6-10.3,7.3-15.7c3.2-10,3.2-11,3.8-16.7"/>
<rect x="31.3" y="397.9" class="st3" width="61.7" height="40.7"/>
<rect x="-43.9" y="397.9" class="st3" width="61.7" height="40.7"/>
<circle class="st4" cx="223.1" cy="569.6" r="4.6"/>
<rect x="151.6" y="403" class="st5" width="141.9" height="154.7"/>
<path class="st3" d="M227.3,282.2v109h-84.4c-2.7,0-4.9,2.2-4.9,4.9v71.3H-96.7c-3.3,0-6-2.7-6-6V282.2c0-3.3,2.7-6,6-6h318
	C224.6,276.2,227.3,278.9,227.3,282.2z"/>
<rect x="107.2" y="397.9" class="st3" width="31.2" height="40.7"/>
<path class="st3" d="M253.1,270.4v120.5H142.9c-2.7,0-4.9,2.2-4.9,4.9v114.6H-80.2v-37.6c0-3-2.5-5.5-5.5-5.5h-42V270.4
	c0-8.2,6.7-14.9,14.9-14.9h351.1C246.4,255.5,253.1,262.2,253.1,270.4z"/>
<path class="st3" d="M303.2,580.6H142.9c-2.7,0-4.9-2.2-4.9-4.9V396.1c0-2.7,2.2-4.9,4.9-4.9h160.3c2.7,0,4.9,2.2,4.9,4.9v179.6
	C308.1,578.4,305.9,580.6,303.2,580.6z"/>
<rect x="169.7" y="419.3" class="st6" width="104.8" height="71.2"/>
<rect x="169.7" y="506.4" class="st5" width="46.1" height="30.4"/>
<rect x="228.2" y="506.4" class="st5" width="46.1" height="30.4"/>
<rect x="-143" y="480.4" class="st7" width="53.5" height="84.7"/>
<circle class="st4" cx="-116.3" cy="572.5" r="3.2"/>
<path class="st8" d="M-86.4,581.3h-59.7c-3.1,0-5.5-2.5-5.5-5.5V473.6c0-3.1,2.5-5.5,5.5-5.5h59.7c3.1,0,5.5,2.5,5.5,5.5v102.2
	C-80.9,578.9-83.4,581.3-86.4,581.3z"/>
<rect x="-133.6" y="489.4" class="st9" width="34.9" height="22.8"/>
<rect x="-133.6" y="517.2" class="st7" width="34.9" height="16.1"/>
<rect x="-133.6" y="538.7" class="st7" width="34.9" height="16.1"/>
</svg>
