<?xml version="1.0" encoding="utf-8"?>
<!-- Generator: Adobe Illustrator 19.0.0, SVG Export Plug-In . SVG Version: 6.00 Build 0)  -->
<svg version="1.1" id="Layer_1" xmlns="http://www.w3.org/2000/svg" xmlns:xlink="http://www.w3.org/1999/xlink" x="0px" y="0px"
	 viewBox="-91 203 412.1 436.9" style="enable-background:new -91 203 412.1 436.9;" xml:space="preserve">
<style type="text/css">
	.st0{fill:none;stroke:#FFFFFF;stroke-width:6;stroke-miterlimit:10;}
	.st1{fill:none;stroke:#FFFFFF;stroke-width:6;stroke-linecap:round;stroke-linejoin:round;stroke-miterlimit:10;}
	.st2{fill:none;stroke:#D9B343;stroke-width:6;stroke-miterlimit:10;}
	.st3{fill:none;stroke:#FFFFFF;stroke-width:6;stroke-linecap:round;stroke-miterlimit:10;}
</style>
<g id="_x32_qd15W.tif">
</g>
<g>
	<path class="st0" d="M290.6,522.5H-60.5c-8.2,0-14.9-6.7-14.9-14.9V282.5c0-8.2,6.7-14.9,14.9-14.9h351.1c8.2,0,14.9,6.7,14.9,14.9
		v225.1C305.5,515.9,298.8,522.5,290.6,522.5z"/>
	<path class="st1" d="M208.9,592.4L208.9,592.4l-191.1,0l0.2-0.4c11.1-2.6,24.1-14.2,33.2-31c7.5-13.8,10.6-28,9.3-38.6h101.5
		c-1.3,10.5,1.8,24.6,9.3,38.4C181.7,579.9,197,592.3,208.9,592.4z"/>
	<path class="st0" d="M273.7,479.4h-318c-3.3,0-6-2.7-6-6V294.3c0-3.3,2.7-6,6-6h318c3.3,0,6,2.7,6,6v179.2
		C279.6,476.8,277,479.4,273.7,479.4z"/>
	<rect x="8.3" y="322.5" class="st0" width="213.5" height="17.7"/>
	<rect x="96.8" y="361.6" class="st0" width="124.5" height="77.4"/>
	<g>
		<rect x="8.3" y="361.6" class="st2" width="66.5" height="77.4"/>
		<line class="st2" x1="74.8" y1="361.6" x2="8.3" y2="439"/>
		<line class="st2" x1="8.3" y1="361.6" x2="74.8" y2="439"/>
	</g>
	<path class="st3" d="M71.1,572.4c3.6-4.9,5.6-10.3,7.3-15.7c3.2-10,3.2-11,3.8-16.7"/>
</g>
</svg>
