<?xml version="1.0" encoding="utf-8"?>
<!-- Generator: Adobe Illustrator 19.0.0, SVG Export Plug-In . SVG Version: 6.00 Build 0)  -->
<svg version="1.1" id="Layer_1" xmlns="http://www.w3.org/2000/svg" xmlns:xlink="http://www.w3.org/1999/xlink" x="0px" y="0px"
	 viewBox="-91 203 412.1 436.9" style="enable-background:new -91 203 412.1 436.9;" xml:space="preserve">
<style type="text/css">
	.st0{fill:none;stroke:#D9B343;stroke-width:6;stroke-linejoin:round;stroke-miterlimit:10;}
	.st1{fill:none;stroke:#FFFFFF;stroke-width:6;stroke-linecap:round;stroke-linejoin:round;stroke-miterlimit:10;}
</style>
<g id="_x32_qd15W.tif">
</g>
<g>
	<path class="st0" d="M-19.8,430.3c0,52.6,30.5,98,74.8,119.5L-8.3,376.3C-15.6,392.8-19.8,411.1-19.8,430.3z"/>
	<path class="st0" d="M202.4,418c0-16.4-5.7-22.1-10.7-31c-6.7-10.9-13-20.2-13-31.1c0-12.2,9.3-23.6,22.3-23.6
		c0.6,0,1.1,0.1,1.7,0.1c-23.6-21.6-55.1-34.9-89.7-34.9c-46.4,0-84.4,19.8-108.2,55.8c3.1,0.1,6,0.6,8.5,0.6c13.9,0,32.9,0,32.9,0
		c7.2-0.4,7.8,12,0.6,12.8c0,0-7.2,0.8-15.2,1.3l45.2,134.4l30-83.7l-18.5-50.8c-7.2-0.4-13.9-1.3-13.9-1.3
		c-7.2-0.4-6.1-13.6,1-13.2c0,0,21.5,0.8,34.5,0.8c13.9,0,35.2-1.2,35.2-1.2c7.2-0.4,8.4,12.8,1.3,13.6c0,0-7.2,0.8-15.2,1.3
		l45.2,134.4l13.3-39.5C195.5,444.7,202.4,429.3,202.4,418z"/>
	<path class="st0" d="M115.3,441.9L75.5,557.7c11.9,3.5,24.5,5.4,37.5,5.4c15.5,0,30.3-2.7,44.1-7.5c-0.4-0.6-0.7-1.2-1-1.8
		L115.3,441.9z"/>
	<path class="st0" d="M229.5,366.6c0.6,4.2,0.9,8.8,0.9,13.7c0,13.5-2.5,28.6-10.1,47.6l-40.6,117.2c39.5-23,66-65.8,66-114.8
		C245.8,407.2,239.9,385.5,229.5,366.6z"/>
	<circle class="st1" cx="113.2" cy="430.6" r="161.8"/>
</g>
</svg>
